<?xml version="1.0" encoding="UTF-8"?>
<svg version="1.1" xmlns="http://www.w3.org/2000/svg" width="996" height="265">
<path d="M0 0 C5.65973011 -0.20580837 11.721967 -0.3214585 17 2 C18.2578125 4.078125 18.2578125 4.078125 19 6 C19.66 6 20.32 6 21 6 C22.34710829 29.08412105 22.34710829 29.08412105 20.9609375 37.07421875 C20.79370215 39.12227663 20.79370215 39.12227663 22.4453125 40.62109375 C22.95835937 41.07613281 23.47140625 41.53117187 24 42 C24.5 44.375 24.5 44.375 24 47 C23.17024658 47.62994873 22.34049316 48.25989746 21.4855957 48.90893555 C17.65634017 53.67096327 18.48153592 58.16413879 18.73046875 64.08203125 C18.75973953 65.25134689 18.78901031 66.42066254 18.81916809 67.62541199 C18.9180373 71.35557107 19.05230597 75.08349798 19.1875 78.8125 C19.26079952 81.34303237 19.33179075 83.87363274 19.40039062 86.40429688 C19.5734956 92.60390219 19.7756655 98.80204844 20 105 C20.82927002 105.3290332 21.65854004 105.65806641 22.51293945 105.99707031 C23.59792725 106.43631836 24.68291504 106.87556641 25.80078125 107.328125 C26.87755127 107.7602832 27.95432129 108.19244141 29.0637207 108.63769531 C33.25107277 110.58044284 34.74606265 111.95845716 37 116 C37.75302274 119.01209098 37.93006826 121.90302291 38 125 C38.05800781 126.22976562 38.05800781 126.22976562 38.1171875 127.484375 C38.31105535 134.42053575 38.11730173 141.625824 33.8125 147.375 C26.14715406 154.52932288 16.59958619 154.42291701 6.72265625 154.296875 C-0.22701256 154.0213065 -6.77115123 152.11442439 -13 149 C-13 148.34 -13 147.68 -13 147 C-17.04486625 148.41925132 -20.50574156 149.6836746 -24.125 152 C-32.6903868 157.04299178 -44.1386591 157.42670011 -53.87036133 158.17822266 C-58.36096156 158.5806044 -61.28934482 159.45713016 -65 162 C-65.66 162 -66.32 162 -67 162 C-67 162.66 -67 163.32 -67 164 C-69.475 164.99 -69.475 164.99 -72 166 C-72.01458252 166.57854736 -72.02916504 167.15709473 -72.04418945 167.75317383 C-72.81122476 194.99512401 -72.81122476 194.99512401 -78.5625 201.1875 C-81 203 -81 203 -83 203 C-83 203.66 -83 204.32 -83 205 C-90.57458108 208.83347701 -102.09028522 208.43894785 -110.10546875 206.08984375 C-115.74424269 203.152392 -118.7546851 199.161949 -121.08178329 193.25327015 C-122.09884268 189.64979732 -122.25168495 186.62752619 -122.25396729 182.88517761 C-122.25708727 182.19219725 -122.26020725 181.4992169 -122.26342177 180.78523713 C-122.27136514 178.47547058 -122.26509248 176.16596943 -122.25878906 173.85620117 C-122.26150063 172.19506171 -122.26506249 170.53392346 -122.26940918 168.87278748 C-122.27851786 164.36851985 -122.27499462 159.86434397 -122.26865101 155.36007476 C-122.26358063 150.63973099 -122.26828559 145.91939498 -122.27142334 141.1990509 C-122.27506102 133.26932366 -122.27027018 125.33963369 -122.26074219 117.40991211 C-122.24986928 108.25544751 -122.25337555 99.10107209 -122.264395 89.94660968 C-122.27348694 82.07719099 -122.27474349 74.20779907 -122.26951766 66.33837682 C-122.266407 61.64273164 -122.2659635 56.94712828 -122.27259064 52.25148582 C-122.27839083 47.83309979 -122.27431846 43.414828 -122.26280212 38.99645424 C-122.26016931 37.37961135 -122.26089692 35.76275876 -122.26532745 34.1459198 C-122.28509789 26.19462597 -122.18580083 18.70220533 -120 11 C-119.34 11 -118.68 11 -118 11 C-117.814375 10.2575 -117.62875 9.515 -117.4375 8.75 C-115.48523722 5.01523643 -112.77557955 3.55373644 -109 2 C-105.9375 1.25 -105.9375 1.25 -102 1 C-100.94296875 0.91363281 -99.8859375 0.82726563 -98.796875 0.73828125 C-91.55726263 0.38570273 -86.44033957 1.00243304 -80.18359375 4.7109375 C-72.55522748 12.70775795 -72.30215836 21.79696556 -72.40841484 32.25806046 C-72.43409058 34.80713775 -72.4289558 37.35461845 -72.41651917 39.90377808 C-72.39589467 45.31103239 -72.41539244 50.71777934 -72.4375 56.125 C-72.45867561 62.40356713 -72.463083 68.6816142 -72.43699837 74.96017075 C-72.43365797 77.45975711 -72.4547812 79.95832769 -72.47740173 82.45779419 C-72.53433685 93.31278925 -72.53433685 93.31278925 -68 103 C-67.01 103.495 -67.01 103.495 -66 104 C-66 104.66 -66 105.32 -66 106 C-65.21625 106.309375 -64.4325 106.61875 -63.625 106.9375 C-61 108 -61 108 -59 109 C-51.92177678 109.76227019 -46.51732632 109.63799474 -40.71875 105.2890625 C-39 104 -39 104 -36.90625 103.1484375 C-33.65853942 101.19182498 -33.19408521 97.6555268 -32.15626526 94.15026855 C-30.15793014 86.06330767 -29.62451169 78.58857977 -29.77734375 70.28125 C-29.79082603 68.39073914 -29.79082603 68.39073914 -29.80458069 66.46203613 C-29.82931125 63.14611299 -29.86600104 59.83066036 -29.9105835 56.51495361 C-29.9728188 51.85605566 -30.02376872 47.19714815 -30.05970764 42.53796387 C-30.07918018 40.07016655 -30.10847051 37.60241837 -30.14964294 35.1348877 C-30.3096082 16.6192164 -30.3096082 16.6192164 -27 10 C-26.34 10 -25.68 10 -25 10 C-24.79375 9.4225 -24.5875 8.845 -24.375 8.25 C-21.98145472 4.33328954 -18.56579932 2.41754649 -14.1875 1.25 C-3.22033898 0.38983051 -3.22033898 0.38983051 0 2 C0 1.34 0 0.68 0 0 Z " fill="#FA3839" transform="translate(494,57)"/>
<path d="M0 0 C5.61126334 5.2047842 8.43967976 10.44085899 10.625 17.6875 C10.93566406 18.66485107 11.24632812 19.64220215 11.56640625 20.64916992 C12.74588088 24.4226542 13.87748368 28.20930354 15 32 C15.38690002 33.30233582 15.38690002 33.30233582 15.78161621 34.63098145 C17.87506689 41.68549463 19.9449179 48.74671915 22 55.8125 C22.29739075 56.83419281 22.59478149 57.85588562 22.90118408 58.90853882 C23.75176366 61.8399176 24.59590726 64.77306122 25.4375 67.70703125 C25.69647064 68.59979767 25.95544128 69.49256409 26.22225952 70.41238403 C26.45699982 71.23640717 26.69174011 72.0604303 26.93359375 72.90942383 C27.2438147 73.98997795 27.2438147 73.98997795 27.56030273 75.09236145 C28 77 28 77 28 80 C28.66 80 29.32 80 30 80 C29.99000725 78.77423752 29.99000725 78.77423752 29.97981262 77.52371216 C29.91946002 69.78615314 29.8739037 62.04870982 29.84456348 54.31097603 C29.82897181 50.333842 29.80785396 46.35690404 29.77368164 42.37988281 C29.74085417 38.5348915 29.72309824 34.69008764 29.71536827 30.84496689 C29.70986639 29.38509042 29.69912365 27.92522308 29.68280983 26.4654274 C29.47370793 6.96172471 29.47370793 6.96172471 34.74494934 1.0395813 C40.14649636 -3.89116952 44.87885318 -4.3504604 52.05078125 -4.28125 C57.33210807 -3.77760029 59.88718282 -1.23312174 63.3125 2.5625 C66.48401729 7.14358054 66.16029737 11.55469058 66.17700195 16.91845703 C66.18357315 17.83102768 66.19014435 18.74359833 66.19691467 19.68382263 C66.21664816 22.70848676 66.22831208 25.73310117 66.23828125 28.7578125 C66.24235678 29.79192135 66.2464323 30.8260302 66.25063133 31.89147568 C66.27149497 37.36775259 66.28579391 42.84400444 66.29516602 48.3203125 C66.30621474 53.96600962 66.34059629 59.6113109 66.38033772 65.25686836 C66.40653784 69.60646273 66.41486102 73.9559634 66.41844749 78.30562973 C66.42330677 80.38595113 66.43490185 82.46626853 66.45348549 84.5465126 C66.47794277 87.46638155 66.47689947 90.38523487 66.4699707 93.30517578 C66.48278076 94.15642532 66.49559082 95.00767487 66.50878906 95.88471985 C66.44534112 103.26202703 64.3394963 109.16797817 59.625 114.875 C52.61902983 120.54649967 45.75489694 121.68337193 37 121 C29.85259936 119.71652937 24.75052558 116.42739087 20 111 C13.12543425 100.49422359 10.4986546 87.81582193 7.1875 75.875 C6.31349368 72.76560529 5.43615499 69.65717246 4.55744934 66.54910278 C4.01528927 64.62696892 3.47650153 62.70387994 2.94145203 60.77975464 C2.70062393 59.91770416 2.45979584 59.05565369 2.21166992 58.16748047 C2.00104416 57.40869598 1.7904184 56.6499115 1.57341003 55.86813354 C1.03629877 53.93503545 1.03629877 53.93503545 0 52 C-0.99 52 -1.98 52 -3 52 C-3.00808685 52.62116699 -3.01617371 53.24233398 -3.02450562 53.88232422 C-3.11084103 60.37178346 -3.21035614 66.86094739 -3.31738281 73.35009766 C-3.35556737 75.76899235 -3.39043826 78.18794179 -3.421875 80.60693359 C-3.46775422 84.09232086 -3.52571129 87.57733466 -3.5859375 91.0625 C-3.60326431 92.67390869 -3.60326431 92.67390869 -3.62094116 94.31787109 C-3.78679639 102.83575181 -4.41694545 110.14081869 -10 117 C-15.7956655 121.31592112 -22.07096758 120.72465791 -29 120 C-33.99915096 117.75900129 -36.29559051 114.70767579 -39 110 C-40.30377214 106.08868359 -40.16399635 102.358994 -40.17700195 98.28100586 C-40.18357315 97.38954865 -40.19014435 96.49809143 -40.19691467 95.57962036 C-40.21664855 92.62469396 -40.228313 89.66981848 -40.23828125 86.71484375 C-40.24439454 85.19865039 -40.24439454 85.19865039 -40.25063133 83.65182686 C-40.2714965 78.29759043 -40.28579401 72.94337963 -40.29516602 67.58911133 C-40.30620687 62.07354455 -40.34057879 56.55838383 -40.38033772 51.04296017 C-40.40656172 46.79026063 -40.41486319 42.53765677 -40.41844749 38.2848835 C-40.42330168 36.25283644 -40.43488212 34.22079331 -40.45348549 32.18882561 C-40.65170645 9.09492804 -40.65170645 9.09492804 -34.25923157 2.09336853 C-24.8659979 -6.72763958 -10.4981534 -7.271304 0 0 Z " fill="#FFFFFF" transform="translate(587,77)"/>
<path d="M0 0 C1.00572556 -0.00744736 1.00572556 -0.00744736 2.0317688 -0.01504517 C4.24417153 -0.02961771 6.45650252 -0.03646132 8.66894531 -0.04199219 C10.21348064 -0.04774863 11.75801595 -0.0535063 13.30255127 -0.05926514 C16.5405714 -0.06976183 19.77856682 -0.07561289 23.01660156 -0.07910156 C27.15010185 -0.08457693 31.28327119 -0.10858987 35.41666794 -0.13707352 C38.60814341 -0.15577108 41.79954038 -0.16090931 44.99106598 -0.16243744 C46.51398778 -0.16544955 48.03690868 -0.17342898 49.55977631 -0.18662262 C67.65931143 -0.33221136 67.65931143 -0.33221136 73.62207031 5.47363281 C77.07087132 11.1774191 78.32931498 16.65459839 76.74707031 23.24316406 C75.22874207 27.89304432 73.55184846 30.5582437 69.24707031 33.16113281 C63.91763727 35.4203712 59.01440063 35.47164747 53.32519531 35.50488281 C52.38399841 35.51950562 51.44280151 35.53412842 50.4730835 35.54919434 C46.46217062 35.61129385 42.45111065 35.65122823 38.43994141 35.69287109 C35.50569217 35.7265001 32.57177611 35.77161168 29.63769531 35.81738281 C28.7262677 35.82265991 27.81484009 35.82793701 26.87579346 35.83337402 C26.03441833 35.84678833 25.19304321 35.86020264 24.32617188 35.87402344 C23.58481995 35.8813147 22.84346802 35.88860596 22.07965088 35.89611816 C19.99873731 36.01038381 19.99873731 36.01038381 18.24707031 38.16113281 C17.94068441 40.89548243 17.73573671 43.54393102 17.62207031 46.28613281 C17.58339844 47.04023437 17.54472656 47.79433594 17.50488281 48.57128906 C17.41056 50.43416466 17.32772369 52.29761536 17.24707031 54.16113281 C18.34664062 53.82339844 19.44621094 53.48566406 20.57910156 53.13769531 C50.13253792 44.16880866 50.13253792 44.16880866 61.24707031 48.34863281 C64.69799231 50.43356485 66.3733044 51.56350226 68.24707031 55.16113281 C68.96560924 59.60116109 69.28829844 64.00186464 67.29394531 68.13769531 C63.98418466 72.39010931 60.34520698 73.8870044 55.13769531 74.56738281 C41.89652223 74.90835723 30.04295363 71.49918933 17.24707031 68.16113281 C17.74207031 80.04113281 17.74207031 80.04113281 18.24707031 92.16113281 C21.06531136 93.44205361 21.06531136 93.44205361 23.12548828 92.49609375 C24.1718042 91.95130371 24.1718042 91.95130371 25.23925781 91.39550781 C26.02034912 91.00089355 26.80144043 90.6062793 27.60620117 90.19970703 C28.8515564 89.56186279 28.8515564 89.56186279 30.12207031 88.91113281 C42.25038181 82.96424449 54.11046426 78.73875388 67.59863281 82.88378906 C72.65709369 85.07199966 75.64359414 88.34526059 78.24707031 93.16113281 C79.39037544 96.5910482 79.45088682 99.35977442 79.49707031 102.97363281 C79.52285156 104.17632812 79.54863281 105.37902344 79.57519531 106.61816406 C79.07812767 111.98531116 77.10376507 115.91852325 72.99707031 119.41113281 C72.45566406 119.89066406 71.91425781 120.37019531 71.35644531 120.86425781 C65.14355691 124.68403365 58.3617143 124.46838151 51.30175781 124.46191406 C50.254888 124.46619919 49.20801819 124.47048431 48.12942505 124.47489929 C45.91897298 124.48062564 43.70850208 124.48115539 41.49804688 124.47680664 C38.15363491 124.47366249 34.81012211 124.49707303 31.46582031 124.52246094 C1.8315307 124.61230754 1.8315307 124.61230754 -8.75292969 115.16113281 C-18.5645306 104.9398167 -19.09206039 91.82654893 -18.89355469 78.37597656 C-18.55369523 66.02866336 -14.77966417 53.8542964 -5.94042969 44.84863281 C-4.2154743 43.28156808 -2.83865628 42.20399611 -0.75292969 41.16113281 C-0.42292969 40.17113281 -0.09292969 39.18113281 0.24707031 38.16113281 C-0.32140625 38.20753906 -0.88988281 38.25394531 -1.47558594 38.30175781 C-7.18920741 38.56883862 -11.40799419 38.10084117 -15.75292969 34.16113281 C-20.39261202 28.69783823 -20.19417908 22.40309011 -20.18652344 15.52832031 C-19.5467426 10.55993216 -17.79183466 6.50233331 -13.81542969 3.34863281 C-9.15453115 0.01941957 -5.67758547 0.03202445 0 0 Z " fill="#FFFFFF" transform="translate(894.7529296875,72.8388671875)"/>
<path d="M0 0 C3.91689852 2.7704892 7.02064235 5.18692704 8.5625 9.8125 C8.66904168 11.68691258 8.71853113 13.56478267 8.73608398 15.44213867 C8.74957382 16.59731491 8.76306366 17.75249115 8.77696228 18.94267273 C8.78740067 20.19264542 8.79783905 21.4426181 8.80859375 22.73046875 C8.83310193 24.69620954 8.85762136 26.66195025 8.88279057 28.62768269 C8.943441 33.47378796 8.99404897 38.3199883 9.03930664 43.16625977 C9.06506562 45.88357648 9.09593232 48.60074933 9.13209534 51.31794739 C9.1657446 53.87440384 9.19174089 56.43097558 9.20909119 58.9875946 C9.33520714 67.86115907 9.6159041 75.70962157 15.5625 82.8125 C20.90036424 86.81589818 27.17138632 86.57497871 33.5625 85.8125 C37.58853836 84.56230914 39.99635078 82.74805154 42.21484375 79.08203125 C46.84337101 67.85282163 42.47447782 55.19999574 39.24267578 44.14501953 C31.93019871 19.06842013 31.93019871 19.06842013 36.4453125 8.59765625 C39.23288876 4.14338229 43.71578659 0.76181801 48.5625 -1.1875 C55.01411807 -1.98012736 61.19471494 -1.88760193 66.87890625 1.4921875 C72.69797735 6.05563537 74.54808711 11.70196311 75.5625 18.8125 C75.83817094 23.41455133 75.84305096 28.00400066 75.828125 32.61328125 C75.83003845 33.92604538 75.8319519 35.23880951 75.83392334 36.59135437 C75.83685571 39.359047 75.83264038 42.12660971 75.82324219 44.89428711 C75.81188242 48.4072961 75.81839697 51.91999818 75.83038712 55.4329958 C75.83943944 58.82644746 75.83306043 62.21982093 75.828125 65.61328125 C75.83217346 66.85741287 75.83622192 68.10154449 75.84039307 69.38337708 C75.75527935 85.46708215 73.42374638 99.75676991 61.89453125 111.6875 C58.68178245 114.6150299 55.4352134 116.8560982 51.5625 118.8125 C50.469375 119.369375 49.37625 119.92625 48.25 120.5 C32.06892445 126.25936587 12.64656606 125.52123429 -2.98754883 118.50537109 C-14.4032919 112.998325 -20.93021202 105.65489677 -25.4375 93.8125 C-27.94416753 85.20085614 -27.74701299 76.62334114 -27.73828125 67.73828125 C-27.74217454 66.08399855 -27.74651051 64.42971684 -27.75126648 62.7754364 C-27.75869419 59.32348372 -27.75846107 55.8716334 -27.75317383 52.41967773 C-27.74736147 48.00473508 -27.76436923 43.59020955 -27.7875185 39.17533588 C-27.80226825 35.76518828 -27.80312624 32.35514112 -27.80000877 28.94496727 C-27.80052063 27.31713213 -27.80573279 25.68929116 -27.81582069 24.0614872 C-27.82820233 21.78591486 -27.82138553 19.51115569 -27.80981445 17.2355957 C-27.81075859 15.29774956 -27.81075859 15.29774956 -27.8117218 13.320755 C-27.40127385 9.47288705 -26.47064673 7.08730403 -24.4375 3.8125 C-17.158543 -1.79836269 -8.7533023 -3.02386807 0 0 Z " fill="#FFFFFF" transform="translate(278.4375,74.1875)"/>
<path d="M0 0 C14.97395363 12.42519556 19.52916983 37.53009864 25.5625 55.125 C26.41633958 57.60493035 27.27050401 60.08474888 28.125 62.56445312 C30.40426405 69.18595527 32.68011479 75.80850456 34.9375 82.4375 C35.31335739 83.5297287 35.68921478 84.6219574 36.07646179 85.74728394 C36.43835098 86.8104483 36.80024017 87.87361267 37.1730957 88.96899414 C37.49864944 89.91996475 37.82420319 90.87093536 38.15962219 91.85072327 C40.10437734 98.31786672 40.25826908 105.66066247 38.01953125 112.0625 C35.04981766 117.29073363 31.34950741 119.42311942 25.625 121.125 C18.37962834 121.96748508 11.51684598 121.98022476 4.9375 118.4375 C1.60946116 115.48622028 -0.65258109 112.66725672 -2.0625 108.4375 C-2.36182329 102.33658704 -2.19927226 96.44615338 -1.0625 90.4375 C-2.19757808 89.0753818 -2.19757808 89.0753818 -5.20532227 89.32397461 C-6.59652697 89.32413367 -7.98773761 89.32982494 -9.37890625 89.33984375 C-10.10996078 89.3412587 -10.84101532 89.34267365 -11.59422302 89.34413147 C-13.93785632 89.34974592 -16.28139539 89.36230078 -18.625 89.375 C-20.21028508 89.38001314 -21.79557166 89.38457637 -23.38085938 89.38867188 C-27.2747761 89.39972003 -31.16862205 89.41699428 -35.0625 89.4375 C-36.42625672 92.16501345 -35.69801178 93.49498329 -35 96.4375 C-33.65893034 103.38916723 -34.15457487 109.23491138 -37.8125 115.375 C-43.35536119 120.45595609 -49.52332264 121.76748756 -56.87890625 121.65625 C-62.9708602 121.04596481 -68.81828052 118.93137945 -73.0625 114.4375 C-77.14275522 107.54327567 -77.09226036 100.65702757 -75.21435547 92.9621582 C-74.83606752 91.65594299 -74.44892168 90.35227245 -74.0546875 89.05078125 C-73.72880142 87.96089149 -73.72880142 87.96089149 -73.39633179 86.84898376 C-70.49710029 77.34491694 -67.14686312 67.99197294 -63.80664062 58.63598633 C-62.69104176 55.50992451 -61.5832704 52.38117217 -60.4765625 49.25195312 C-57.1536985 39.88446972 -53.78126886 30.53810058 -50.2109375 21.26171875 C-49.79770737 20.17879295 -49.79770737 20.17879295 -49.37612915 19.07398987 C-45.83616601 9.99783404 -40.92442768 2.06059782 -32.109375 -2.59375 C-21.15760405 -6.97445838 -10.1456729 -5.17636372 0 0 Z M-19.0625 33.4375 C-22.15367919 35.9842445 -22.9657598 38.56290271 -24.10546875 42.34765625 C-24.45673828 43.50201172 -24.80800781 44.65636719 -25.16992188 45.84570312 C-25.52634766 47.05162109 -25.88277344 48.25753906 -26.25 49.5 C-26.61802734 50.70978516 -26.98605469 51.91957031 -27.36523438 53.16601562 C-29.2674625 58.70657113 -29.2674625 58.70657113 -30.0625 64.4375 C-22.4725 64.4375 -14.8825 64.4375 -7.0625 64.4375 C-7.98564311 57.97549823 -9.43779478 52.31024853 -11.375 46.125 C-11.67083984 45.12404297 -11.96667969 44.12308594 -12.27148438 43.09179688 C-12.56990234 42.13724609 -12.86832031 41.18269531 -13.17578125 40.19921875 C-13.57470581 38.8992395 -13.57470581 38.8992395 -13.98168945 37.57299805 C-15.2840138 34.99982636 -16.40630492 34.42879242 -19.0625 33.4375 Z " fill="#FFFFFF" transform="translate(737.0625,76.5625)"/>
<path d="M0 0 C0.79728012 -0.0049649 1.59456024 -0.00992981 2.41600037 -0.01504517 C5.05045439 -0.02963487 7.68484817 -0.036464 10.31933594 -0.04199219 C12.15533448 -0.04774693 13.99133302 -0.05350462 15.82733154 -0.05926514 C19.677371 -0.06976651 23.52738964 -0.07561461 27.37744141 -0.07910156 C32.29786245 -0.08457986 37.21800588 -0.10859732 42.13834 -0.13707352 C45.93201487 -0.15574846 49.72562357 -0.16090811 53.51934052 -0.16243744 C55.3325324 -0.1654543 57.14572339 -0.17345001 58.95886993 -0.18662262 C61.50273915 -0.20378252 64.04593927 -0.20177869 66.58984375 -0.1953125 C67.33090866 -0.20452728 68.07197357 -0.21374207 68.835495 -0.22323608 C74.43672821 -0.17890052 80.24177552 0.69238551 84.58656693 4.50690842 C89.52312994 10.13157501 90.47079494 15.26420713 90.29589844 22.51269531 C89.7159446 28.8547711 86.42233662 32.07682056 81.77246094 35.96191406 C76.31926955 39.76675442 68.40528147 38.65073304 62.05371094 38.16113281 C57.414591 36.76663545 53.8910284 34.03912091 50.05371094 31.16113281 C47.90637167 30.45598435 47.90637167 30.45598435 46.05371094 30.16113281 C46.61009714 34.47312589 48.25890805 38.00139737 50.11621094 41.87988281 C51.96022488 46.3669834 52.18792774 50.69400081 52.23071289 55.50854492 C52.24996574 57.4009214 52.24996574 57.4009214 52.26960754 59.33152771 C52.27777421 60.70050664 52.28521808 62.06949004 52.29199219 63.43847656 C52.29606771 64.13248629 52.30014324 64.82649601 52.30434227 65.54153633 C52.32514022 69.2118512 52.33947146 72.88212933 52.34887695 76.55249023 C52.35995622 80.33316266 52.39439065 84.11324898 52.43404865 87.89371395 C52.46023648 90.81145798 52.46857042 93.72906232 52.47215843 96.64691353 C52.47701521 98.04032941 52.48860339 99.43373943 52.50719643 100.82703972 C52.67588109 114.29989402 52.67588109 114.29989402 48.05371094 119.16113281 C42.39892752 124.26423005 37.78125733 124.56668501 30.36230469 124.50878906 C25.61254889 124.0097002 22.50880112 122.41193745 19.05371094 119.16113281 C15.56847463 114.55162673 14.93113911 110.41287778 14.90844727 104.7409668 C14.90206741 103.65561142 14.89568756 102.57025604 14.88911438 101.45201111 C14.88800156 100.28223221 14.88688873 99.11245331 14.88574219 97.90722656 C14.88074959 96.09038109 14.88074959 96.09038109 14.87565613 94.23683167 C14.87059157 91.67050557 14.86824766 89.10417289 14.8684082 86.5378418 C14.86623294 82.63807074 14.84810292 78.73858777 14.82910156 74.83886719 C14.8261652 72.34082127 14.82418203 69.84277402 14.82324219 67.34472656 C14.81605667 66.18911728 14.80887115 65.033508 14.8014679 63.84288025 C14.82741638 54.50282775 15.48897722 45.46335641 19.67871094 36.97363281 C20.12472656 36.05195312 20.57074219 35.13027344 21.03027344 34.18066406 C21.36800781 33.51421875 21.70574219 32.84777344 22.05371094 32.16113281 C20.32319296 31.32944498 20.32319296 31.32944498 18.05371094 31.16113281 C15.49043056 32.60825525 15.49043056 32.60825525 12.80371094 34.59863281 C5.26316669 39.20982348 -1.39557871 39.45835596 -9.94628906 38.16113281 C-14.59697331 36.53339333 -17.15537022 34.05345151 -20.38378906 30.41113281 C-23.29759973 24.35040662 -23.59545029 18.44699239 -21.67285156 12.01269531 C-19.63766847 6.82626098 -16.97058664 3.54767416 -11.94628906 1.16113281 C-8.05085781 -0.16303589 -4.06552794 0.00606636 0 0 Z " fill="#FFFFFF" transform="translate(779.9462890625,72.8388671875)"/>
<path d="M0 0 C4.629618 2.42551726 7.67884614 6.08776216 9.38560486 11.01654053 C9.98570071 14.37233943 9.9755383 17.71590435 10.00219727 21.11425781 C10.01209686 21.89512756 10.02199646 22.67599731 10.03219604 23.48052979 C10.06372873 26.05599966 10.08853586 28.63148796 10.11328125 31.20703125 C10.13385789 32.9949389 10.15485455 34.78284176 10.17625427 36.57073975 C10.23140163 41.27246214 10.28084323 45.97422791 10.32910156 50.67602539 C10.37937018 55.47546236 10.43502825 60.27483648 10.49023438 65.07421875 C10.59772621 74.48822754 10.69919107 83.90229094 10.796875 93.31640625 C12.4380127 92.49257446 12.4380127 92.49257446 14.11230469 91.65209961 C15.5644329 90.92427606 17.01658247 90.1964951 18.46875 89.46875 C19.18788574 89.10761108 19.90702148 88.74647217 20.64794922 88.37438965 C32.01247205 82.68238721 42.92660227 77.99755738 55.8359375 81.609375 C61.14415784 83.52329508 63.92304526 86.03390188 66.671875 90.87890625 C69.8005865 97.7317937 69.90852424 104.52334965 67.671875 111.69140625 C65.35012432 116.9720392 61.48500512 119.52637045 56.3527832 121.92822266 C50.85279793 123.91092797 45.37529034 123.74662743 39.58984375 123.71484375 C37.8480761 123.71914902 37.8480761 123.71914902 36.07112122 123.72354126 C33.62284862 123.72557583 31.17455954 123.72008866 28.72631836 123.70751953 C25.00662271 123.69150205 21.28802085 123.70736742 17.56835938 123.7265625 C15.17968513 123.72457911 12.79101156 123.72073345 10.40234375 123.71484375 C9.30303024 123.72091644 8.20371674 123.72698914 7.0710907 123.73324585 C-2.54694334 123.64699122 -11.90262324 122.40644458 -19.546875 116.125 C-25.76770119 109.33197518 -26.35207448 100.44557759 -26.36425781 91.67407227 C-26.36922272 90.81491211 -26.37418762 89.95575195 -26.37930298 89.07055664 C-26.39387152 86.2371337 -26.40071672 83.40376669 -26.40625 80.5703125 C-26.41200456 78.59643045 -26.41776226 76.62254841 -26.42352295 74.64866638 C-26.43401694 70.51374044 -26.4398705 66.37883386 -26.44335938 62.24389648 C-26.44884947 56.95002226 -26.47289531 51.65640452 -26.50133133 46.36261082 C-26.51996637 42.28679152 -26.52516371 38.21103401 -26.52669525 34.1351757 C-26.52971889 32.18356863 -26.53773766 30.23196257 -26.55088043 28.28039742 C-26.56796362 25.54944482 -26.56605547 22.81911934 -26.55957031 20.08813477 C-26.5687851 19.28534592 -26.57799988 18.48255707 -26.5874939 17.65544128 C-26.54650314 12.13606907 -25.55738761 7.89751187 -21.703125 3.671875 C-15.36646381 -1.26213984 -7.80144427 -2.4206609 0 0 Z " fill="#FFFFFF" transform="translate(179.203125,73.68359375)"/>
<path d="M0 0 C3.98744709 2.32050328 6.71896697 4.71834141 8.55859375 9.046875 C9.63594675 13.27643359 9.7288119 17.43575286 9.76391602 21.7746582 C9.77381561 22.53616684 9.78371521 23.29767548 9.79391479 24.08226013 C9.82538195 26.58736106 9.85022845 29.09248092 9.875 31.59765625 C9.89558231 33.33929423 9.91657912 35.08092735 9.93797302 36.82255554 C9.99306182 41.39767518 10.04252907 45.97283891 10.09082031 50.54803467 C10.14113188 55.22021389 10.19676746 59.89232939 10.25195312 64.56445312 C10.35937326 73.72520593 10.46085384 82.88601416 10.55859375 92.046875 C14.00051323 90.91681981 17.30551104 89.79360407 20.546875 88.171875 C21.25392578 87.82640625 21.96097656 87.4809375 22.68945312 87.125 C24.13446911 86.41090078 25.57722294 85.69220411 27.01757812 84.96875 C37.11268241 80.06306016 47.07461235 78.55221453 57.93359375 82.171875 C63.24566842 85.96621405 67.27793985 90.5155401 68.55859375 97.046875 C69.34131042 104.18916461 68.38590972 109.90302567 64.55859375 116.046875 C60.22372887 120.75329973 54.04071166 122.70286193 47.76953125 123.32241821 C44.64316373 123.42479874 41.53027172 123.43671605 38.40234375 123.41015625 C37.26003296 123.41065475 36.11772217 123.41115326 34.9407959 123.41166687 C32.53717296 123.40933714 30.13354709 123.39967413 27.72998047 123.38305664 C24.06976291 123.35944704 20.41027454 123.36250702 16.75 123.36914062 C14.40494361 123.36356336 12.05989027 123.35645317 9.71484375 123.34765625 C8.63021851 123.34856766 7.54559326 123.34947906 6.42810059 123.35041809 C-4.71235412 123.24745711 -13.47280729 121.69284699 -21.75390625 113.859375 C-27.90418536 103.60890982 -26.89797903 91.94600982 -26.875 80.41015625 C-26.87956703 78.40097376 -26.88487415 76.39179283 -26.8908844 74.38261414 C-26.89978543 70.18754699 -26.89742463 65.99267057 -26.88745117 61.79760742 C-26.87593304 56.43097552 -26.89623196 51.06499884 -26.92536831 45.69845295 C-26.94373504 41.55565745 -26.94343744 37.41301911 -26.93773079 33.2701931 C-26.93757781 31.2915066 -26.94360305 29.31280929 -26.95602226 27.33416176 C-26.97094894 24.56781667 -26.96024501 21.80268482 -26.94311523 19.03637695 C-26.9527832 18.22633713 -26.96245117 17.4162973 -26.97241211 16.58171082 C-26.89974579 10.95957791 -25.62322569 7.69924847 -22.44140625 3.046875 C-16.64901891 -2.20576716 -7.05269137 -2.75337071 0 0 Z " fill="#FFFFFF" transform="translate(78.44140625,73.953125)"/>
<path d="M0 0 C11.68138137 3.97771176 21.09339663 9.68395389 31 17 C30.34 17.33 29.68 17.66 29 18 C29.01487652 27.56234257 29.05647668 37.12408826 29.13209057 46.68614483 C29.16636499 51.12636238 29.19147121 55.5662357 29.19555664 60.0065918 C29.1998387 64.29278259 29.22829288 68.57819684 29.27343178 72.86414528 C29.28640989 74.49833463 29.29071332 76.1326169 29.28615379 77.76685143 C29.28124957 80.05855262 29.30732666 82.34798255 29.34057617 84.6394043 C29.35056892 86.59465279 29.35056892 86.59465279 29.36076355 88.58940125 C30.15910518 92.84889389 31.66176639 94.32711624 35 97 C37.27380051 97.78591559 37.27380051 97.78591559 39.5625 97.9375 C43.09022395 98.59012893 43.86297886 98.86632084 46.5625 101.5 C48.83057563 107.02227111 49.11103252 112.31013179 46.8125 117.875 C43.4459074 121.8220396 40.18660697 124.69595677 34.87109375 125.203125 C23.55224153 125.42114463 15.62065948 122.18572565 7.39453125 114.5 C6.23723251 113.35890993 5.11388674 112.18350466 4 111 C3.52691406 111.51949219 3.05382812 112.03898437 2.56640625 112.57421875 C-5.06563102 120.62281946 -14.78161322 126.56174528 -26 128 C-28.33301986 128.03824623 -30.66711508 128.04574284 -33 128 C-32.505 127.01 -32.505 127.01 -32 126 C-31.34 126 -30.68 126 -30 126 C-30.9977758 123.00667261 -31.7522025 122.05233685 -34 120 C-31.03 119.505 -31.03 119.505 -28 119 C-28.495 118.01 -28.495 118.01 -29 117 C-30.10408203 117.16048828 -30.10408203 117.16048828 -31.23046875 117.32421875 C-39.30017153 118.31560892 -39.30017153 118.31560892 -43.1875 116.5625 C-43.785625 116.046875 -44.38375 115.53125 -45 115 C-44 112 -44 112 -42.0625 110.1875 C-37.46149868 108.40343827 -33.65074012 109.7447517 -29 111 C-29 110.34 -29 109.68 -29 109 C-30.65 108.67 -32.3 108.34 -34 108 C-34 107.34 -34 106.68 -34 106 C-33.0409375 105.5978125 -33.0409375 105.5978125 -32.0625 105.1875 C-29.66868314 104.11332248 -29.66868314 104.11332248 -29 101 C-26.8125 100.26171875 -26.8125 100.26171875 -24 99.6875 C-15.82800591 97.61005403 -10.14624036 94.33276564 -5.5625 87.125 C-0.4341828 78.27098226 -0.66809005 69.01577619 -0.5859375 59.0703125 C-0.56719558 57.6292107 -0.54761999 56.18811953 -0.5272522 54.74703979 C-0.47619498 50.97666759 -0.4364369 47.20625975 -0.39910889 43.43572998 C-0.35895621 39.58727343 -0.30787931 35.73896305 -0.2578125 31.890625 C-0.07592265 19.44564354 -0.07592265 19.44564354 0 7 C0 4.66666667 0 2.33333333 0 0 Z " fill="#EA2525" transform="translate(474,76)"/>
<path d="M0 0 C4.52838389 3.28529811 7.10711365 6.82793876 8.1875 12.3125 C8.27998974 13.68014767 8.32631737 15.05143413 8.33467102 16.42218018 C8.34182632 17.2322905 8.34898163 18.04240082 8.35635376 18.87705994 C8.35904266 19.75713211 8.36173157 20.63720428 8.36450195 21.54394531 C8.37435875 22.94469048 8.37435875 22.94469048 8.38441467 24.37373352 C8.40411755 27.4626982 8.41580349 30.55161433 8.42578125 33.640625 C8.42985678 34.69713005 8.4339323 35.7536351 8.43813133 36.84215546 C8.45897905 42.43399357 8.47328651 48.02580723 8.48266602 53.61767578 C8.49372876 59.38562765 8.52813114 65.15319358 8.56783772 70.92100906 C8.59401271 75.36320705 8.60235865 79.80531317 8.60594749 84.24758148 C8.61081099 86.3733862 8.62241815 88.49918688 8.64098549 90.62491608 C8.66539566 93.60474547 8.6644083 96.58357729 8.6574707 99.56347656 C8.67028076 100.43545181 8.68309082 101.30742706 8.69628906 102.20582581 C8.63681908 109.24057733 6.84687181 114.65312819 1.8125 119.6875 C-3.48811022 122.96883014 -8.60919486 124.05930567 -14.8125 123.3125 C-20.86121379 121.53960113 -24.34566477 118.43131711 -27.8125 113.3125 C-28.71431319 110.60706042 -28.9431049 109.02622001 -28.95967102 106.24714661 C-28.96682632 105.42158264 -28.97398163 104.59601868 -28.98135376 103.74543762 C-28.98538712 102.39188423 -28.98538712 102.39188423 -28.98950195 101.01098633 C-28.99607315 100.0577951 -29.00264435 99.10460388 -29.00941467 98.12252808 C-29.0291493 94.96319501 -29.04081148 91.80390951 -29.05078125 88.64453125 C-29.05485678 87.565044 -29.0589323 86.48555676 -29.06313133 85.37335777 C-29.08399407 79.65833095 -29.09829419 73.94332815 -29.10766602 68.22827148 C-29.11872294 62.33137909 -29.15311432 56.43486482 -29.19283772 50.53810596 C-29.21901207 45.99897063 -29.22735867 41.45992521 -29.23094749 36.92072105 C-29.23581232 34.74746844 -29.2474233 32.57421982 -29.26598549 30.40104103 C-29.2903908 27.3540536 -29.28940895 24.30804204 -29.2824707 21.26098633 C-29.29528076 20.36873856 -29.30809082 19.47649078 -29.32128906 18.5572052 C-29.26266072 11.46772446 -27.50205984 6.07475065 -22.5 0.9375 C-15.2929117 -3.42027432 -7.50819909 -3.84252587 0 0 Z " fill="#FFFFFF" transform="translate(33.8125,74.6875)"/>
<path d="M0 0 C5.68746613 -0.20681695 11.715824 -0.40290951 17 2 C18.5625 5.125 18.5625 5.125 19 8 C14.25 9.125 14.25 9.125 12 8 C12.495 8.99 12.495 8.99 13 10 C13.46601942 17.22330097 13.46601942 17.22330097 11.5 20.5 C11.005 20.995 10.51 21.49 10 22 C10.70125 22.474375 11.4025 22.94875 12.125 23.4375 C14 26 14 26 13.8203125 28.26953125 C13.29659083 30.5473618 12.70462556 32.77185971 12 35 C7.1016538 35 5.97322158 33.78275845 2.125 30.875 C-3.70689275 26.58962132 -9.54098522 23.83368178 -16.296875 21.2890625 C-17.18890625 20.86367187 -18.0809375 20.43828125 -19 20 C-19.33 19.01 -19.66 18.02 -20 17 C-20.99 17 -21.98 17 -23 17 C-23.66 18.32 -24.32 19.64 -25 21 C-25.99 21 -26.98 21 -28 21 C-28.33 21.99 -28.66 22.98 -29 24 C-29.1799928 18.78020872 -28.97094808 14.92737019 -27 10 C-26.34 10 -25.68 10 -25 10 C-24.79375 9.4225 -24.5875 8.845 -24.375 8.25 C-21.98145472 4.33328954 -18.56579932 2.41754649 -14.1875 1.25 C-3.22033898 0.38983051 -3.22033898 0.38983051 0 2 C0 1.34 0 0.68 0 0 Z " fill="#FA4245" transform="translate(494,57)"/>
<path d="M0 0 C3.85658398 2.15078722 7.54319097 4.23455278 11 7 C10.34 7.66 9.68 8.32 9 9 C8.53993654 11.20250992 8.53993654 11.20250992 8.375 13.625 C8.30023438 14.44226563 8.22546875 15.25953125 8.1484375 16.1015625 C8.09945313 16.72804687 8.05046875 17.35453125 8 18 C13.39303284 15.56392428 13.39303284 15.56392428 16.4375 10.75 C16.623125 9.8425 16.80875 8.935 17 8 C18.32 8 19.64 8 21 8 C21.495 8.99 21.495 8.99 22 10 C23.32 9.67 24.64 9.34 26 9 C26 9.99 26 10.98 26 12 C24.68 12.33 23.36 12.66 22 13 C22 13.66 22 14.32 22 15 C23.65 15 25.3 15 27 15 C27 16.32 27 17.64 27 19 C26.33613281 18.82082031 25.67226563 18.64164063 24.98828125 18.45703125 C19.40563832 17.00377517 19.40563832 17.00377517 13.9375 18.25 C11.91803407 19.86060215 11.91803407 19.86060215 11 22 C14.89718171 23.86665742 17.54084185 24.13965761 21.8125 23.625 C22.78832031 23.51414063 23.76414062 23.40328125 24.76953125 23.2890625 C25.50558594 23.19367188 26.24164063 23.09828125 27 23 C27.495 24.485 27.495 24.485 28 26 C26.35 26.66 24.7 27.32 23 28 C23.99 28.66 24.98 29.32 26 30 C26 30.99 26 31.98 26 33 C24.35 32.67 22.7 32.34 21 32 C21 32.99 21 33.98 21 35 C20.01 35 19.02 35 18 35 C17.649375 33.9275 17.29875 32.855 16.9375 31.75 C15.06101126 27.25917985 12.29925831 26.02795203 8 24 C8.11509661 25.41750563 8.24253658 26.83401169 8.375 28.25 C8.44460938 29.03890625 8.51421875 29.8278125 8.5859375 30.640625 C9.01507113 33.085877 9.78600638 34.84836903 11 37 C9.75108386 37.48198463 8.50081192 37.96045677 7.25 38.4375 C6.55390625 38.70433594 5.8578125 38.97117188 5.140625 39.24609375 C3.10940997 39.96146693 1.0964709 40.51365652 -1 41 C-0.58996775 38.12977427 -0.19941039 37.1691967 2.0625 35.25 C4.96403234 31.88047857 4.29015714 29.35235717 4 25 C1.00204366 25.86917398 1.00204366 25.86917398 -2 28 C-3.40637082 30.90546938 -4.25109116 33.86640775 -5 37 C-5.99 37 -6.98 37 -8 37 C-8 35.35 -8 33.7 -8 32 C-9.98 32.495 -9.98 32.495 -12 33 C-12.495 31.515 -12.495 31.515 -13 30 C-12.01 29.34 -11.02 28.68 -10 28 C-11.32 27.34 -12.64 26.68 -14 26 C-14 25.01 -14 24.02 -14 23 C-13.26394531 23.10699219 -12.52789062 23.21398437 -11.76953125 23.32421875 C-5.64176636 24.17948866 -5.64176636 24.17948866 0.1875 22.5625 C0.785625 22.046875 1.38375 21.53125 2 21 C-2.22693654 17.82347891 -2.22693654 17.82347891 -7.24609375 17.1796875 C-9.19290496 17.68634425 -11.10179789 18.33396417 -13 19 C-13 17.68 -13 16.36 -13 15 C-11.68 15 -10.36 15 -9 15 C-9 14.34 -9 13.68 -9 13 C-10.32 12.67 -11.64 12.34 -13 12 C-13 11.01 -13 10.02 -13 9 C-11.35 9.33 -9.7 9.66 -8 10 C-8 8.35 -8 6.7 -8 5 C-7.01 5 -6.02 5 -5 5 C-4.91363281 5.62648437 -4.82726562 6.25296875 -4.73828125 6.8984375 C-4.31416966 9.36528839 -3.85008569 11.64392495 -3 14 C-0.61211213 15.62332335 -0.61211213 15.62332335 2 16 C2.66 16.33 3.32 16.66 4 17 C4.66648747 10.476287 4.66648747 10.476287 1.5 4.9375 C0.675 4.298125 -0.15 3.65875 -1 3 C-0.67 2.01 -0.34 1.02 0 0 Z " fill="#FEEFEF" transform="translate(418,169)"/>
<path d="M0 0 C0.45732667 5.71658336 -0.47726246 8.48649253 -4 13 C-2.68 12.34 -1.36 11.68 0 11 C0 12.32 0 13.64 0 15 C0.99 15 1.98 15 3 15 C3.33 13.68 3.66 12.36 4 11 C4.99 11.66 5.98 12.32 7 13 C5.84826645 10.53199953 4.95216435 8.95216435 3 7 C2.875 3.375 2.875 3.375 3 0 C6.68725859 0.99655638 7.79351462 1.6582311 9.8125 5 C11 8 11 8 11 10 C11.66 10 12.32 10 13 10 C13 8.68 13 7.36 13 6 C14.98 6 16.96 6 19 6 C19.33 7.65 19.66 9.3 20 11 C19.34 11 18.68 11 18 11 C18 11.99 18 12.98 18 14 C17.01 14 16.02 14 15 14 C14.34 15.98 13.68 17.96 13 20 C11.02 19.67 9.04 19.34 7 19 C7.66 18.67 8.32 18.34 9 18 C8.01 17.67 7.02 17.34 6 17 C6 17.99 6 18.98 6 20 C5.01 20 4.02 20 3 20 C2.7763932 22.9254644 2.7763932 22.9254644 4 25 C3.01 25 2.02 25 1 25 C2.65 26.98 4.3 28.96 6 31 C5.34 31 4.68 31 4 31 C4.33 32.65 4.66 34.3 5 36 C3.515 36.495 3.515 36.495 2 37 C2 37.99 2 38.98 2 40 C1.34 40 0.68 40 0 40 C-0.33 38.68 -0.66 37.36 -1 36 C-1.66 36 -2.32 36 -3 36 C-2.67 36.99 -2.34 37.98 -2 39 C-2.99 39 -3.98 39 -5 39 C-5.33 38.34 -5.66 37.68 -6 37 C-6 37.66 -6 38.32 -6 39 C-5.34 39.33 -4.68 39.66 -4 40 C-4 40.66 -4 41.32 -4 42 C-4.99 42.495 -4.99 42.495 -6 43 C-5.34 43.66 -4.68 44.32 -4 45 C-6.475 45.495 -6.475 45.495 -9 46 C-9.43177893 39.73920552 -8.92739438 36.90924297 -5 32 C-4.67 32.66 -4.34 33.32 -4 34 C-3.01 33.505 -3.01 33.505 -2 33 C-2.598125 32.401875 -3.19625 31.80375 -3.8125 31.1875 C-4.8953125 30.1046875 -4.8953125 30.1046875 -6 29 C-6.5775 28.46375 -7.155 27.9275 -7.75 27.375 C-9 26 -9 26 -9 24 C-8.01 24 -7.02 24 -6 24 C-6.48726563 23.60167969 -6.97453125 23.20335938 -7.4765625 22.79296875 C-9.91380312 19.92452402 -9.40708843 17.26678186 -9.28515625 13.640625 C-8.84325913 9.54853663 -7.87781905 6.69088572 -6 3 C-2.0625 0 -2.0625 0 0 0 Z " fill="#F32A2A" transform="translate(391,70)"/>
<path d="M0 0 C8.35853396 1.95625263 15.40053145 7.58292699 21.38671875 13.55859375 C22.4467021 15.95269407 22.55576085 16.97699435 21.828125 19.48046875 C21.01432292 21.17317708 20.20052083 22.86588542 19.38671875 24.55859375 C15.47211203 23.19092367 12.68475081 21.38106609 9.44921875 18.80859375 C3.182108 14.11682231 -3.34687829 11.35907606 -10.61328125 8.55859375 C-10.01034007 3.13212316 -10.01034007 3.13212316 -8.3125 0.6796875 C-5.49128203 -1.1816678 -3.21705907 -0.50250359 0 0 Z " fill="#FCEFEF" transform="translate(485.61328125,68.44140625)"/>
<path d="M0 0 C1.13849891 4.17139487 1.38879255 8.32381685 1.625 12.625 C1.67003662 13.42663574 1.71507324 14.22827148 1.76147461 15.05419922 C2.04175251 20.81708571 1.83055687 26.278386 1 32 C-0.98 32.66 -2.96 33.32 -5 34 C-5.09796875 33.04738281 -5.1959375 32.09476563 -5.296875 31.11328125 C-5.44640625 29.85902344 -5.5959375 28.60476562 -5.75 27.3125 C-5.88921875 26.07113281 -6.0284375 24.82976562 -6.171875 23.55078125 C-7.06737746 19.71110327 -8.3269021 17.8415248 -11 15 C-10.26330078 14.41798828 -10.26330078 14.41798828 -9.51171875 13.82421875 C-7.49274247 11.38788304 -7.69101195 9.93069328 -7.8125 6.8125 C-7.83957031 5.91144531 -7.86664063 5.01039062 -7.89453125 4.08203125 C-7.94673828 3.05142578 -7.94673828 3.05142578 -8 2 C-6.2984375 1.7834375 -6.2984375 1.7834375 -4.5625 1.5625 C-1.19222799 1.38828522 -1.19222799 1.38828522 0 0 Z " fill="#FA4041" transform="translate(514,63)"/>
<path d="M0 0 C-3.14285714 4.71428571 -3.14285714 4.71428571 -7 6 C-7 6.99 -7 7.98 -7 9 C-7.763125 9.20625 -8.52625 9.4125 -9.3125 9.625 C-12.82229103 11.42070704 -13.52599781 13.43136312 -15 17 C-15.33 16.34 -15.66 15.68 -16 15 C-16.99 15 -17.98 15 -19 15 C-19.66 16.32 -20.32 17.64 -21 19 C-21.99 19 -22.98 19 -24 19 C-24.33 19.99 -24.66 20.98 -25 22 C-25.1799928 16.78020872 -24.97094808 12.92737019 -23 8 C-22.34 8 -21.68 8 -21 8 C-20.79375 7.4225 -20.5875 6.845 -20.375 6.25 C-17.94781713 2.27824621 -14.47946448 0.40921358 -10.0625 -0.8125 C-6.57167798 -1.0262238 -3.43522352 -0.61834023 0 0 Z " fill="#FD3E40" transform="translate(490,59)"/>
<path d="M0 0 C0.66 0.99 1.32 1.98 2 3 C4.56282742 3.72965366 4.56282742 3.72965366 7 4 C7.33 4.99 7.66 5.98 8 7 C7.67 7.33 7.34 7.66 7 8 C7.66 8 8.32 8 9 8 C8.34 10.97 7.68 13.94 7 17 C8.32 17.99 9.64 18.98 11 20 C10.02149805 21.02104551 9.02019573 22.0206121 8 23 C7.67 23 7.34 23 7 23 C5.66431979 23.32380126 4.33076989 23.65657551 3 24 C3 23.01 3 22.02 3 21 C2.34 21.66 1.68 22.32 1 23 C0.34 22.34 -0.32 21.68 -1 21 C-1 20.34 -1 19.68 -1 19 C-0.34 18.67 0.32 18.34 1 18 C0.360625 17.71125 -0.27875 17.4225 -0.9375 17.125 C-3 16 -3 16 -4 14 C-4.515625 13.505 -5.03125 13.01 -5.5625 12.5 C-7 11 -7 11 -7 9 C-6.34 8.67 -5.68 8.34 -5 8 C-5.66 7.34 -6.32 6.68 -7 6 C-6.01 5.01 -5.02 4.02 -4 3 C-3.34 3.33 -2.68 3.66 -2 4 C-2 3.01 -2 2.02 -2 1 C-1.34 0.67 -0.68 0.34 0 0 Z " fill="#FD3A3A" transform="translate(399,86)"/>
<path d="M0 0 C2.91517292 1.07401108 4.77810176 1.77810176 7 4 C6.01 4.66 5.02 5.32 4 6 C4.66 6.66 5.32 7.32 6 8 C6.125 11.125 6.125 11.125 6 14 C4.35 14.33 2.7 14.66 1 15 C1.33 17.31 1.66 19.62 2 22 C-1 21 -1 21 -2.1875 18.9375 C-2.455625 18.298125 -2.72375 17.65875 -3 17 C-4.98 17.99 -4.98 17.99 -7 19 C-6.67 17.68 -6.34 16.36 -6 15 C-8.475 14.01 -8.475 14.01 -11 13 C-10.67 12.34 -10.34 11.68 -10 11 C-9.34 11 -8.68 11 -8 11 C-8 10.34 -8 9.68 -8 9 C-8.99 8.67 -9.98 8.34 -11 8 C-10.67 7.01 -10.34 6.02 -10 5 C-9.34 5.33 -8.68 5.66 -8 6 C-8.33 6.66 -8.66 7.32 -9 8 C-8.34 7.67 -7.68 7.34 -7 7 C-7 6.34 -7 5.68 -7 5 C-6.34 5 -5.68 5 -5 5 C-4.67 6.32 -4.34 7.64 -4 9 C-3.34 7.68 -2.68 6.36 -2 5 C-1.01 5 -0.02 5 1 5 C0.67 3.35 0.34 1.7 0 0 Z " fill="#FA3131" transform="translate(395,101)"/>
<path d="M0 0 C0.928125 0.350625 1.85625 0.70125 2.8125 1.0625 C3.8025 1.3925 4.7925 1.7225 5.8125 2.0625 C5.8125 2.7225 5.8125 3.3825 5.8125 4.0625 C6.4725 4.3925 7.1325 4.7225 7.8125 5.0625 C7.8125 6.0525 7.8125 7.0425 7.8125 8.0625 C6.4925 7.7325 5.1725 7.4025 3.8125 7.0625 C3.8125 8.3825 3.8125 9.7025 3.8125 11.0625 C3.1525 11.0625 2.4925 11.0625 1.8125 11.0625 C1.420625 9.969375 1.02875 8.87625 0.625 7.75 C-0.8900523 4.15175078 -2.58596838 2.71725777 -6.1875 1.0625 C-5.81340749 6.22248377 -5.81340749 6.22248377 -3.125 10.5 C-2.485625 11.015625 -1.84625 11.53125 -1.1875 12.0625 C-1.5175 13.0525 -1.8475 14.0425 -2.1875 15.0625 C-3.1775 14.4025 -4.1675 13.7425 -5.1875 13.0625 C-5.5175 14.0525 -5.8475 15.0425 -6.1875 16.0625 C-7.1775 16.0625 -8.1675 16.0625 -9.1875 16.0625 C-9.5175 15.0725 -9.8475 14.0825 -10.1875 13.0625 C-11.1775 13.7225 -12.1675 14.3825 -13.1875 15.0625 C-13.1875 12.0625 -13.1875 12.0625 -11.6875 10.25 C-9.73641897 7.4046735 -9.95731089 5.438607 -10.1875 2.0625 C-11.8375 2.7225 -13.4875 3.3825 -15.1875 4.0625 C-10.25888471 -1.03040247 -7.03262711 -2.06841974 0 0 Z " fill="#FDE0E1" transform="translate(400.1875,68.9375)"/>
<path d="M0 0 C15.92938497 5.96583144 15.92938497 5.96583144 22 11 C19 11 19 11 17 10 C17 10.66 17 11.32 17 12 C14 14 14 14 10.375 13.75 C9.26125 13.5025 8.1475 13.255 7 13 C6.67 12.34 6.34 11.68 6 11 C4.35 11 2.7 11 1 11 C0.83197949 9.54182203 0.66562857 8.0834516 0.5 6.625 C0.4071875 5.81289062 0.314375 5.00078125 0.21875 4.1640625 C0 2 0 2 0 0 Z " fill="#D92222" transform="translate(474,76)"/>
<path d="M0 0 C0.45732667 5.71658336 -0.47726246 8.48649253 -4 13 C-2.68 12.34 -1.36 11.68 0 11 C-0.08746284 12.43861294 -0.19565348 13.87597508 -0.3125 15.3125 C-0.37050781 16.11300781 -0.42851562 16.91351563 -0.48828125 17.73828125 C-1.08206694 20.36272334 -1.95780294 21.30820672 -4 23 C-4.33 22.34 -4.66 21.68 -5 21 C-6.32 21 -7.64 21 -9 21 C-9.37261932 14.26525079 -9.08982941 9.07311297 -6 3 C-2.0625 0 -2.0625 0 0 0 Z " fill="#DC2122" transform="translate(391,70)"/>
<path d="M0 0 C1.8125 1.1875 1.8125 1.1875 3 3 C3.42822025 5.85480169 3.40659584 7.34492892 1.875 9.8125 C-0.90003811 11.57002414 -2.78929745 11.46822746 -6 11 C-7.9375 9.3125 -7.9375 9.3125 -9 7 C-8.875 4.375 -8.875 4.375 -8 2 C-4.76746204 -0.15502531 -3.74849077 -0.46856135 0 0 Z " fill="#F6E4E5" transform="translate(515,96)"/>
<path d="M0 0 C-2.34189248 2.90394667 -3.71245339 3.92545088 -7.375 4.875 C-11.12188566 5.00420295 -13.56165164 4.42565664 -17 3 C-16.6368188 0.54469049 -16.45352217 -0.65618269 -14.43359375 -2.1875 C-8.45449633 -4.62126177 -5.27665887 -3.52245047 0 0 Z " fill="#F93434" transform="translate(421,189)"/>
<path d="M0 0 C0.33 12.54 0.66 25.08 1 38 C0.34 38 -0.32 38 -1 38 C-1.33 35.36 -1.66 32.72 -2 30 C-2.33 30 -2.66 30 -3 30 C-2.99476318 29.41508789 -2.98952637 28.83017578 -2.98413086 28.22753906 C-2.96329842 25.56837037 -2.95031993 22.90921889 -2.9375 20.25 C-2.92912109 19.32960937 -2.92074219 18.40921875 -2.91210938 17.4609375 C-2.90888672 16.57148438 -2.90566406 15.68203125 -2.90234375 14.765625 C-2.89710693 13.94868164 -2.89187012 13.13173828 -2.88647461 12.29003906 C-2.99721306 10.05621825 -3.45242189 8.1587485 -4 6 C-3.6875 3.3125 -3.6875 3.3125 -3 1 C-1 0 -1 0 0 0 Z " fill="#FF4E51" transform="translate(513,125)"/>
<path d="M0 0 C10.91882283 4.70926328 10.91882283 4.70926328 14 11 C15.25 14.375 15.25 14.375 16 17 C14.35 17 12.7 17 11 17 C11 15.68 11 14.36 11 13 C10.34 13 9.68 13 9 13 C9 12.01 9 11.02 9 10 C7.35 10 5.7 10 4 10 C3.67 8.35 3.34 6.7 3 5 C2.01 5 1.02 5 0 5 C0 3.35 0 1.7 0 0 Z " fill="#FF5353" transform="translate(405,58)"/>
<path d="M0 0 C0.99 0 1.98 0 3 0 C3 7.59 3 15.18 3 23 C2.01 23 1.02 23 0 23 C-0.7912699 15.69488327 -1.46116563 8.35152271 -1 1 C-0.67 0.67 -0.34 0.34 0 0 Z " fill="#FD464F" transform="translate(418,113)"/>
<path d="M0 0 C6.54545455 2.36363636 6.54545455 2.36363636 9 5 C9.25 8.6875 9.25 8.6875 9 12 C6.75 12.75 6.75 12.75 4 13 C1.6875 11.625 1.6875 11.625 0 9 C-0.32801917 5.96972765 -0.2334542 3.0349046 0 0 Z " fill="#F73233" transform="translate(426,193)"/>
<path d="M0 0 C-0.33 1.32 -0.66 2.64 -1 4 C-0.34 4 0.32 4 1 4 C1.33 3.34 1.66 2.68 2 2 C2.33 2.99 2.66 3.98 3 5 C2.01 5 1.02 5 0 5 C0 5.66 0 6.32 0 7 C0.99 7 1.98 7 3 7 C2.34 8.32 1.68 9.64 1 11 C0.34 10.01 -0.32 9.02 -1 8 C-1.33 9.32 -1.66 10.64 -2 12 C-3.65 11.67 -5.3 11.34 -7 11 C-7.33 9.68 -7.66 8.36 -8 7 C-6.68 7 -5.36 7 -4 7 C-4 6.34 -4 5.68 -4 5 C-5.32 5.33 -6.64 5.66 -8 6 C-7.625 3.5625 -7.625 3.5625 -7 1 C-4.53721199 -0.231394 -2.7204945 -0.07159196 0 0 Z " fill="#FEE4E5" transform="translate(390,115)"/>
<path d="M0 0 C0 1.32 0 2.64 0 4 C-8.32622708 5.93265709 -16.45907394 7.49451662 -25 8 C-25.33 7.34 -25.66 6.68 -26 6 C-25.34 6 -24.68 6 -24 6 C-24 5.34 -24 4.68 -24 4 C-21.03 4.495 -21.03 4.495 -18 5 C-17.67 4.34 -17.34 3.68 -17 3 C-15.68 3.33 -14.36 3.66 -13 4 C-12.67 3.34 -12.34 2.68 -12 2 C-7.87393702 0.27281084 -4.45297431 -0.2120464 0 0 Z " fill="#FA495B" transform="translate(466,207)"/>
<path d="M0 0 C0.66 0 1.32 0 2 0 C4.15729044 10.72866761 4.2071352 21.10238692 4 32 C2.22248814 28.92134946 1.76650003 26.59455855 1.625 23.0625 C1.274157 18.58097713 0.31624056 16.20926506 -3 13 C-2.26330078 12.41798828 -2.26330078 12.41798828 -1.51171875 11.82421875 C0.50725753 9.38788304 0.30898805 7.93069328 0.1875 4.8125 C0.16042969 3.91144531 0.13335937 3.01039062 0.10546875 2.08203125 C0.05326172 1.05142578 0.05326172 1.05142578 0 0 Z " fill="#C81D1D" transform="translate(506,65)"/>
<path d="M0 0 C0.66 0 1.32 0 2 0 C3.17426264 2.34852528 3.11508173 3.73774065 3.09765625 6.3515625 C3.09443359 7.20234375 3.09121094 8.053125 3.08789062 8.9296875 C3.07951172 9.81914063 3.07113281 10.70859375 3.0625 11.625 C3.05798828 12.5221875 3.05347656 13.419375 3.04882812 14.34375 C3.03702591 16.56256648 3.02056155 18.78125018 3 21 C1.68 21 0.36 21 -1 21 C-1 15.72 -1 10.44 -1 5 C-1.66 4.67 -2.32 4.34 -3 4 C-2.01 3.67 -1.02 3.34 0 3 C0 2.01 0 1.02 0 0 Z " fill="#FF4445" transform="translate(418,81)"/>
<path d="M0 0 C0.7795458 2.80747455 1.1710149 5.42029808 1.31640625 8.328125 C1.35830078 9.12734375 1.40019531 9.9265625 1.44335938 10.75 C1.48267578 11.575 1.52199219 12.4 1.5625 13.25 C1.60568359 14.09046875 1.64886719 14.9309375 1.69335938 15.796875 C1.79908543 17.86440671 1.90001295 19.93218281 2 22 C1.67 20.68 1.34 19.36 1 18 C-0.32 18.33 -1.64 18.66 -3 19 C-2.95875 17.865625 -2.9175 16.73125 -2.875 15.5625 C-2.85816159 10.85616438 -3.82378223 6.53683996 -5 2 C-3.35 1.34 -1.7 0.68 0 0 Z " fill="#F04242" transform="translate(514,63)"/>
<path d="M0 0 C4.67692308 1.47692308 4.67692308 1.47692308 6.3125 4.125 C6.539375 4.74375 6.76625 5.3625 7 6 C5.02 6.66 3.04 7.32 1 8 C1.66 9.32 2.32 10.64 3 12 C2.01 12.33 1.02 12.66 0 13 C-0.33 11.68 -0.66 10.36 -1 9 C-1.66 9.66 -2.32 10.32 -3 11 C-3.66 10.34 -4.32 9.68 -5 9 C-5 8.34 -5 7.68 -5 7 C-4.01 7 -3.02 7 -2 7 C-2.99 6.34 -3.98 5.68 -5 5 C-3.35 3.35 -1.7 1.7 0 0 Z " fill="#FC9D9E" transform="translate(387,143)"/>
<path d="M0 0 C4.86896303 0.59619955 9.32790951 1.56976822 14 3 C14 3.66 14 4.32 14 5 C14.66 5.33 15.32 5.66 16 6 C16 6.99 16 7.98 16 9 C14.68 8.67 13.36 8.34 12 8 C12 9.32 12 10.64 12 12 C11.34 12 10.68 12 10 12 C9.62875 10.9275 9.2575 9.855 8.875 8.75 C7.13122757 4.59695744 4.87741907 3.1541217 1 1 C1 3.31 1 5.62 1 8 C0.67 8 0.34 8 0 8 C0 5.36 0 2.72 0 0 Z " fill="#FEECED" transform="translate(392,68)"/>
<path d="M0 0 C2.97 0.495 2.97 0.495 6 1 C5.34 3.31 4.68 5.62 4 8 C3.34 8 2.68 8 2 8 C2.20625 8.86625 2.4125 9.7325 2.625 10.625 C3.04047622 14.36428602 2.39666276 16.54942141 1 20 C0.34 20 -0.32 20 -1 20 C-1.02712351 17.60408962 -1.0468982 15.20849043 -1.0625 12.8125 C-1.07087891 12.13896484 -1.07925781 11.46542969 -1.08789062 10.77148438 C-1.10606538 7.04565869 -0.89299392 3.6211958 0 0 Z " fill="#FF3C3D" transform="translate(373,72)"/>
<path d="M0 0 C3.60103881 0.97325373 4.78469405 1.65848022 6.8125 4.875 C8 8 8 8 8 12 C7.34 12 6.68 12 6 12 C5.67 12.66 5.34 13.32 5 14 C4.54625 13.21625 4.0925 12.4325 3.625 11.625 C2.11571258 8.96301969 2.11571258 8.96301969 0 7 C-0.125 3.375 -0.125 3.375 0 0 Z " fill="#D82222" transform="translate(394,70)"/>
<path d="M0 0 C1.32 0.33 2.64 0.66 4 1 C4 2.32 4 3.64 4 5 C5.32 5.66 6.64 6.32 8 7 C7.02149805 8.02104551 6.02019573 9.0206121 5 10 C4.67 10 4.34 10 4 10 C2.66431979 10.32380126 1.33076989 10.65657551 0 11 C0 10.01 0 9.02 0 8 C-0.66 8.66 -1.32 9.32 -2 10 C-2.66 9.34 -3.32 8.68 -4 8 C-4 7.34 -4 6.68 -4 6 C-3.34 5.67 -2.68 5.34 -2 5 C-2.66 4.67 -3.32 4.34 -4 4 C-3.02149805 2.97895449 -2.02019573 1.9793879 -1 1 C-0.67 1 -0.34 1 0 1 C0 0.67 0 0.34 0 0 Z " fill="#FEC7C9" transform="translate(402,99)"/>
<path d="M0 0 C2 2 2 2 2.1953125 5.6953125 C2.182009 7.17200108 2.15814835 8.64862358 2.125 10.125 C2.11597656 10.87910156 2.10695313 11.63320312 2.09765625 12.41015625 C2.0740687 14.27357254 2.03819719 16.13682593 2 18 C2.33 18 2.66 18 3 18 C3.06058594 18.75925781 3.12117187 19.51851562 3.18359375 20.30078125 C3.26738281 21.29464844 3.35117187 22.28851563 3.4375 23.3125 C3.55931641 24.79169922 3.55931641 24.79169922 3.68359375 26.30078125 C3.91812559 29.09375599 3.91812559 29.09375599 5 32 C4.34 32 3.68 32 3 32 C1.08169113 27.26817144 -0.1248118 23.58943094 -0.09765625 18.45703125 C-0.09443359 17.38388672 -0.09121094 16.31074219 -0.08789062 15.20507812 C-0.07951172 14.08552734 -0.07113281 12.96597656 -0.0625 11.8125 C-0.05798828 10.68134766 -0.05347656 9.55019531 -0.04882812 8.38476562 C-0.03703498 5.58979073 -0.0205765 2.7949218 0 0 Z " fill="#FF4344" transform="translate(509,134)"/>
<path d="M0 0 C1.32 0 2.64 0 4 0 C4.8125 1.6875 4.8125 1.6875 5 4 C2.8386373 6.51185394 0.98037561 8.50981219 -2 10 C-4.125 9.0625 -4.125 9.0625 -6 8 C-6 7.34 -6 6.68 -6 6 C-5.34 6 -4.68 6 -4 6 C-3.71125 5.38125 -3.4225 4.7625 -3.125 4.125 C-2 2 -2 2 0 0 Z " fill="#FF5964" transform="translate(473,61)"/>
<path d="M0 0 C2.31 0 4.62 0 7 0 C6.01 0.495 6.01 0.495 5 1 C5 1.66 5 2.32 5 3 C3.35 3.66 1.7 4.32 0 5 C-0.33 9.95 -0.66 14.9 -1 20 C-1.66 19.67 -2.32 19.34 -3 19 C-2.979375 17.783125 -2.95875 16.56625 -2.9375 15.3125 C-2.91434279 12.68647234 -3.05140114 10.81152915 -3.75 8.25 C-3.8325 7.5075 -3.915 6.765 -4 6 C-2.0625 3.8125 -2.0625 3.8125 0 2 C0 1.34 0 0.68 0 0 Z " fill="#F96767" transform="translate(422,218)"/>
<path d="M0 0 C0.66 0.33 1.32 0.66 2 1 C1.67 1.66 1.34 2.32 1 3 C1.66 2.67 2.32 2.34 3 2 C3 1.34 3 0.68 3 0 C3.66 0 4.32 0 5 0 C5.625 1.8125 5.625 1.8125 6 4 C5.01 5.485 5.01 5.485 4 7 C4.99 7.33 5.98 7.66 7 8 C6.67 9.65 6.34 11.3 6 13 C5.01 13.33 4.02 13.66 3 14 C3.33 12.68 3.66 11.36 4 10 C1.525 9.01 1.525 9.01 -1 8 C-0.67 7.34 -0.34 6.68 0 6 C0.66 6 1.32 6 2 6 C2 5.34 2 4.68 2 4 C1.01 3.67 0.02 3.34 -1 3 C-0.67 2.01 -0.34 1.02 0 0 Z " fill="#FC393A" transform="translate(385,106)"/>
<path d="M0 0 C0.33 0.99 0.66 1.98 1 3 C1.556875 2.773125 2.11375 2.54625 2.6875 2.3125 C5 2 5 2 7.75 3.25 C8.86375 4.11625 8.86375 4.11625 10 5 C10 5.99 10 6.98 10 8 C7 9 7 9 4.73828125 8.00390625 C3.93777344 7.52824219 3.13726562 7.05257813 2.3125 6.5625 C1.50425781 6.08941406 0.69601562 5.61632812 -0.13671875 5.12890625 C-0.75160156 4.75636719 -1.36648438 4.38382812 -2 4 C-1.34 2.68 -0.68 1.36 0 0 Z " fill="#FF5E60" transform="translate(380,255)"/>
<path d="M0 0 C1.32 0.33 2.64 0.66 4 1 C4 5.95 4 10.9 4 16 C-0.13960085 10.48053221 -0.13321422 6.79392497 0 0 Z " fill="#FC4F50" transform="translate(509,108)"/>
<path d="M0 0 C2.67927341 4.01891012 2.15601248 6.24161923 2 11 C2.66 11 3.32 11 4 11 C4 13.31 4 15.62 4 18 C2.68 18 1.36 18 0 18 C0 12.06 0 6.12 0 0 Z " fill="#FF5057" transform="translate(372,226)"/>
<path d="M0 0 C0 2.31 0 4.62 0 7 C-1.98 7.99 -1.98 7.99 -4 9 C-4.33 8.01 -4.66 7.02 -5 6 C-5.99 6.66 -6.98 7.32 -8 8 C-8 6.68 -8 5.36 -8 4 C-1.125 0 -1.125 0 0 0 Z " fill="#FF6467" transform="translate(386,59)"/>
<path d="M0 0 C-0.33 0.99 -0.66 1.98 -1 3 C-4.28305377 4.58072959 -7.54536928 5.84845643 -11 7 C-11 5.35 -11 3.7 -11 2 C-7.17010894 0.19769832 -4.21878192 -0.19622241 0 0 Z " fill="#FF4B55" transform="translate(526,204)"/>
<path d="M0 0 C3.89075454 1.29691818 6.52462743 2.66776769 9 6 C8.75 8.75 8.75 8.75 8 11 C7.01 10.34 6.02 9.68 5 9 C5 8.01 5 7.02 5 6 C4.360625 5.7525 3.72125 5.505 3.0625 5.25 C1 4 1 4 0.25 1.875 C0.1675 1.25625 0.085 0.6375 0 0 Z " fill="#F7E3E4" transform="translate(499,77)"/>
<path d="M0 0 C0.99 0 1.98 0 3 0 C2.34 3.63 1.68 7.26 1 11 C-0.65 11.33 -2.3 11.66 -4 12 C-3.01 11.67 -2.02 11.34 -1 11 C-1 10.01 -1 9.02 -1 8 C-1.99 7.67 -2.98 7.34 -4 7 C-3.34 6.01 -2.68 5.02 -2 4 C-1.01 4 -0.02 4 1 4 C0.67 2.68 0.34 1.36 0 0 Z " fill="#FF585F" transform="translate(418,242)"/>
<path d="M0 0 C0.33 0 0.66 0 1 0 C1.33 5.61 1.66 11.22 2 17 C1.67 15.68 1.34 14.36 1 13 C-0.32 13.33 -1.64 13.66 -3 14 C-2.67 11.69 -2.34 9.38 -2 7 C-1.34 7 -0.68 7 0 7 C0 4.69 0 2.38 0 0 Z " fill="#E13435" transform="translate(514,68)"/>
<path d="M0 0 C0.33 0.99 0.66 1.98 1 3 C3.50447516 4.21869929 3.50447516 4.21869929 6 5 C5.01 5.495 5.01 5.495 4 6 C4.66 7.32 5.32 8.64 6 10 C5.01 10.33 4.02 10.66 3 11 C2.67 9.68 2.34 8.36 2 7 C1.34 7.66 0.68 8.32 0 9 C-0.66 8.34 -1.32 7.68 -2 7 C-2 6.34 -2 5.68 -2 5 C-1.01 5 -0.02 5 1 5 C0.01 4.34 -0.98 3.68 -2 3 C-1.34 2.01 -0.68 1.02 0 0 Z " fill="#FFDDDE" transform="translate(384,145)"/>
<path d="M0 0 C1.8125 0.75 1.8125 0.75 4 2 C4.9075 2.495 5.815 2.99 6.75 3.5 C7.86375 4.2425 7.86375 4.2425 9 5 C9 5.66 9 6.32 9 7 C1.375 6.125 1.375 6.125 -2 5 C-2 3.68 -2 2.36 -2 1 C-1.34 0.67 -0.68 0.34 0 0 Z " fill="#FF4249" transform="translate(491,204)"/>
<path d="M0 0 C0.66 0 1.32 0 2 0 C2 0.99 2 1.98 2 3 C2.66 3 3.32 3 4 3 C3.67 4.65 3.34 6.3 3 8 C2.01 8 1.02 8 0 8 C-0.33 8.99 -0.66 9.98 -1 11 C-1.125 3.375 -1.125 3.375 0 0 Z " fill="#FF5462" transform="translate(466,70)"/>
<path d="M0 0 C2.97 0.495 2.97 0.495 6 1 C5.01 3.31 4.02 5.62 3 8 C0.525 7.01 0.525 7.01 -2 6 C-2 5.01 -2 4.02 -2 3 C-1.01 3 -0.02 3 1 3 C0.67 2.01 0.34 1.02 0 0 Z " fill="#EE2727" transform="translate(384,91)"/>
<path d="M0 0 C0.66 0.33 1.32 0.66 2 1 C2.05380578 3.79192205 2.09357669 6.5828141 2.125 9.375 C2.14175781 10.1690625 2.15851563 10.963125 2.17578125 11.78125 C2.19335473 13.85492015 2.10335168 15.92883241 2 18 C1.34 18.66 0.68 19.32 0 20 C-0.19421438 17.04196565 -0.38066186 14.08379837 -0.5625 11.125 C-0.61857422 10.28324219 -0.67464844 9.44148438 -0.73242188 8.57421875 C-0.78076172 7.76855469 -0.82910156 6.96289062 -0.87890625 6.1328125 C-0.9260376 5.38918457 -0.97316895 4.64555664 -1.02172852 3.87939453 C-1 2 -1 2 0 0 Z " fill="#FF3F43" transform="translate(465,83)"/>
<path d="M0 0 C3.5553561 3.5553561 3.88216246 6.18678978 4 11 C3.5625 14.5 3.5625 14.5 3 17 C2.67 17 2.34 17 2 17 C1.34 11.39 0.68 5.78 0 0 Z " fill="#FB3434" transform="translate(508,66)"/>
<path d="M0 0 C1.65 0 3.3 0 5 0 C4.34 2.31 3.68 4.62 3 7 C2.01 7 1.02 7 0 7 C-0.38218767 5.34385343 -0.71395102 3.67542976 -1 2 C-0.67 1.67 -0.34 1.34 0 1 C0 0.67 0 0.34 0 0 Z " fill="#FF686E" transform="translate(526,196)"/>
<path d="M0 0 C0.49230769 6.4 0.49230769 6.4 -2 9.4375 C-2.99 10.2109375 -2.99 10.2109375 -4 11 C-4 7.56169885 -3.62599243 4.38035912 -3 1 C-1 0 -1 0 0 0 Z " fill="#E62F30" transform="translate(391,70)"/>
<path d="M0 0 C1.4540625 0.0309375 1.4540625 0.0309375 2.9375 0.0625 C2.9375 1.3825 2.9375 2.7025 2.9375 4.0625 C-0.3625 4.0625 -3.6625 4.0625 -7.0625 4.0625 C-6.4025 3.7325 -5.7425 3.4025 -5.0625 3.0625 C-4.7325 2.4025 -4.4025 1.7425 -4.0625 1.0625 C-3.0625 0.0625 -3.0625 0.0625 0 0 Z " fill="#F55B5B" transform="translate(463.0625,206.9375)"/>
<path d="M0 0 C0.66 0 1.32 0 2 0 C3.20272819 2.40545638 3.10071472 3.94996953 3.0625 6.625 C3.05347656 7.44226563 3.04445313 8.25953125 3.03515625 9.1015625 C3.02355469 9.72804688 3.01195312 10.35453125 3 11 C2.34 11 1.68 11 1 11 C0.67 7.37 0.34 3.74 0 0 Z " fill="#FF5E67" transform="translate(418,87)"/>
<path d="M0 0 C0.33 0 0.66 0 1 0 C1 1.65 1 3.3 1 5 C-1.3125 5.625 -1.3125 5.625 -4 6 C-4.99 5.34 -5.98 4.68 -7 4 C-6.34 4 -5.68 4 -5 4 C-5 3.34 -5 2.68 -5 2 C-4.360625 1.855625 -3.72125 1.71125 -3.0625 1.5625 C-1.02454854 1.18992819 -1.02454854 1.18992819 0 0 Z " fill="#FF3A49" transform="translate(381,64)"/>
<path d="M0 0 C2 0 4 0 6 0 C5.67 1.32 5.34 2.64 5 4 C3.1875 4.6875 3.1875 4.6875 1 5 C-0.75 3.5625 -0.75 3.5625 -2 2 C-1.34 1.34 -0.68 0.68 0 0 Z " fill="#FF4449" transform="translate(410,255)"/>
<path d="M0 0 C0.625 3.375 0.625 3.375 1 7 C0.34 7.66 -0.32 8.32 -1 9 C-3.35953094 6.64046906 -3.49141413 5.22104383 -4 2 C-1 0 -1 0 0 0 Z " fill="#FF4952" transform="translate(531,174)"/>
<path d="M0 0 C1.32 0.33 2.64 0.66 4 1 C3.67 2.65 3.34 4.3 3 6 C0.69 5.67 -1.62 5.34 -4 5 C-3.34 3.68 -2.68 2.36 -2 1 C-1.34 1.66 -0.68 2.32 0 3 C0 2.01 0 1.02 0 0 Z " fill="#FED9DA" transform="translate(402,99)"/>
<path d="M0 0 C2.475 0.99 2.475 0.99 5 2 C4.67 2.99 4.34 3.98 4 5 C3.01 5 2.02 5 1 5 C0.87625 5.639375 0.7525 6.27875 0.625 6.9375 C0.41875 7.618125 0.2125 8.29875 0 9 C-0.99 9.495 -0.99 9.495 -2 10 C-1.34 6.7 -0.68 3.4 0 0 Z " fill="#EA2728" transform="translate(394,81)"/>
<path d="M0 0 C3.875 1.75 3.875 1.75 5 4 C4.34 4 3.68 4 3 4 C2.67 4.99 2.34 5.98 2 7 C0.68 6.67 -0.64 6.34 -2 6 C-2 5.34 -2 4.68 -2 4 C-1.34 4 -0.68 4 0 4 C0 2.68 0 1.36 0 0 Z " fill="#FC3F3F" transform="translate(404,76)"/>
<path d="M0 0 C2.31 0 4.62 0 7 0 C6.01 0.495 6.01 0.495 5 1 C5 1.66 5 2.32 5 3 C3.7934375 3.433125 3.7934375 3.433125 2.5625 3.875 C-0.1326468 4.73262568 -0.1326468 4.73262568 -1 7 C-1.33 6.01 -1.66 5.02 -2 4 C-1.34 3.34 -0.68 2.68 0 2 C0 1.34 0 0.68 0 0 Z " fill="#FF505B" transform="translate(422,218)"/>
<path d="M0 0 C0.33 0.66 0.66 1.32 1 2 C2.32 1.67 3.64 1.34 5 1 C6.0625 2.875 6.0625 2.875 7 5 C6.67 5.66 6.34 6.32 6 7 C5.34 7 4.68 7 4 7 C4 6.34 4 5.68 4 5 C2.68 4.34 1.36 3.68 0 3 C0 2.01 0 1.02 0 0 Z " fill="#FF5A61" transform="translate(477,199)"/>
<path d="M0 0 C0.99 0 1.98 0 3 0 C3 2.64 3 5.28 3 8 C2.01 8 1.02 8 0 8 C0 5.36 0 2.72 0 0 Z " fill="#FF6267" transform="translate(418,138)"/>
<path d="M0 0 C-0.309375 0.5775 -0.61875 1.155 -0.9375 1.75 C-2.07743133 3.92954724 -2.07743133 3.92954724 -2.4375 6.1875 C-2.7159375 7.0846875 -2.7159375 7.0846875 -3 8 C-3.99 8.33 -4.98 8.66 -6 9 C-5.38983051 3.50847458 -5.38983051 3.50847458 -3.5625 1.125 C-2 0 -2 0 0 0 Z " fill="#F6E5E5" transform="translate(481,68)"/>
<path d="M0 0 C0.99 0.33 1.98 0.66 3 1 C4.25541557 4.76624671 3.37061958 6.37188934 2 10 C1.34 10 0.68 10 0 10 C0 6.7 0 3.4 0 0 Z " fill="#FF6363" transform="translate(372,82)"/>
<path d="M0 0 C0 1.98 0 3.96 0 6 C-1.98 6.99 -1.98 6.99 -4 8 C-3.74438677 5.6568787 -3.40729228 3.32156597 -3 1 C-1 0 -1 0 0 0 Z " fill="#CE1B1B" transform="translate(388,72)"/>
<path d="M0 0 C0.66 0.33 1.32 0.66 2 1 C2 2.98 2 4.96 2 7 C1.01 7 0.02 7 -1 7 C-1.04254356 5.00045254 -1.04080783 2.99958364 -1 1 C-0.67 0.67 -0.34 0.34 0 0 Z " fill="#FF4345" transform="translate(418,230)"/>
<path d="M0 0 C0.66 0.33 1.32 0.66 2 1 C2 2.32 2 3.64 2 5 C0.35 5.33 -1.3 5.66 -3 6 C-2.625 3.5625 -2.625 3.5625 -2 1 C-1.34 0.67 -0.68 0.34 0 0 Z " fill="#FB8184" transform="translate(385,115)"/>
<path d="M0 0 C2.64 0 5.28 0 8 0 C5.60490662 2.89932357 3.68754757 3.50168276 0 4 C0 2.68 0 1.36 0 0 Z " fill="#FF7676" transform="translate(393,58)"/>
<path d="M0 0 C1.98 0 3.96 0 6 0 C5.34 1.65 4.68 3.3 4 5 C2.68 4.67 1.36 4.34 0 4 C0 2.68 0 1.36 0 0 Z " fill="#FF5253" transform="translate(393,259)"/>
<path d="M0 0 C-1.98 2.97 -1.98 2.97 -4 6 C-6 2.25 -6 2.25 -6 0 C-2.25 -1.125 -2.25 -1.125 0 0 Z " fill="#FD8788" transform="translate(394,151)"/>
<path d="M0 0 C0.33 0 0.66 0 1 0 C1.36923077 5.53846154 1.36923077 5.53846154 -0.5 7.875 C-1.2425 8.431875 -1.2425 8.431875 -2 9 C-2.125 5.625 -2.125 5.625 -2 2 C-1.34 1.34 -0.68 0.68 0 0 Z " fill="#FF6466" transform="translate(420,115)"/>
<path d="M0 0 C2.475 0.99 2.475 0.99 5 2 C4.67 3.65 4.34 5.3 4 7 C3.67 6.34 3.34 5.68 3 5 C2.01 5 1.02 5 0 5 C0 3.35 0 1.7 0 0 Z " fill="#FF6C6D" transform="translate(405,58)"/>
<path d="M0 0 C1.65 0 3.3 0 5 0 C5 1.65 5 3.3 5 5 C2.525 4.01 2.525 4.01 0 3 C0 2.01 0 1.02 0 0 Z " fill="#FD8F91" transform="translate(382,122)"/>
<path d="M0 0 C0.66 0.33 1.32 0.66 2 1 C2 1.66 2 2.32 2 3 C1.01 3 0.02 3 -1 3 C-1 3.66 -1 4.32 -1 5 C-0.01 5 0.98 5 2 5 C1.34 6.32 0.68 7.64 0 9 C-2 6 -2 6 -2 2 C-1.34 2 -0.68 2 0 2 C0 1.34 0 0.68 0 0 Z " fill="#FED6D6" transform="translate(391,117)"/>
<path d="M0 0 C1.74627478 2.61941217 2.38722388 4.03824877 3 7 C1.02 7.66 -0.96 8.32 -3 9 C-2.5359375 7.88625 -2.5359375 7.88625 -2.0625 6.75 C-1.1905075 4.49307824 -0.52332993 2.3549847 0 0 Z " fill="#F82D2D" transform="translate(407,86)"/>
<path d="M0 0 C0.33 0 0.66 0 1 0 C1.125 2.875 1.125 2.875 1 6 C0.34 6.66 -0.32 7.32 -1 8 C-1.66 6.68 -2.32 5.36 -3 4 C-2.34 4 -1.68 4 -1 4 C-0.67 2.68 -0.34 1.36 0 0 Z " fill="#E82526" transform="translate(390,81)"/>
<path d="M0 0 C1.5 1.125 1.5 1.125 3 3 C3.1875 6.1875 3.1875 6.1875 3 9 C2.67 8.34 2.34 7.68 2 7 C1.34 7 0.68 7 0 7 C0 4.69 0 2.38 0 0 Z " fill="#FF2B32" transform="translate(418,74)"/>
<path d="M0 0 C1.32 0.33 2.64 0.66 4 1 C4 1.99 4 2.98 4 4 C2.02 4 0.04 4 -2 4 C-1.34 2.68 -0.68 1.36 0 0 Z " fill="#FB7575" transform="translate(400,260)"/>
<path d="M0 0 C1.98 0 3.96 0 6 0 C6 0.99 6 1.98 6 3 C4.35 3.33 2.7 3.66 1 4 C0.67 2.68 0.34 1.36 0 0 Z " fill="#FF6B73" transform="translate(469,203)"/>
<path d="M0 0 C1.98 0.66 3.96 1.32 6 2 C4.35 3.32 2.7 4.64 1 6 C0.34 5.67 -0.32 5.34 -1 5 C-0.67 3.35 -0.34 1.7 0 0 Z " fill="#FF6667" transform="translate(432,165)"/>
<path d="M0 0 C1.32 1.65 2.64 3.3 4 5 C2.68 5.99 1.36 6.98 0 8 C-0.79953138 4.71303767 -1.09658936 3.28976808 0 0 Z " fill="#FF2323" transform="translate(422,155)"/>
<path d="M0 0 C2.97 0.495 2.97 0.495 6 1 C5.34 2.65 4.68 4.3 4 6 C3.67 5.01 3.34 4.02 3 3 C2.01 3 1.02 3 0 3 C0 2.01 0 1.02 0 0 Z " fill="#FF4647" transform="translate(373,72)"/>
<path d="M0 0 C0.66 0 1.32 0 2 0 C1.67 0.66 1.34 1.32 1 2 C0.67 1.34 0.34 0.68 0 0 Z " fill="#000000" transform="translate(516,96)"/>
<path d="" fill="#000000" transform="translate(0,0)"/>
<path d="" fill="#000000" transform="translate(0,0)"/>
<path d="" fill="#000000" transform="translate(0,0)"/>
<path d="" fill="#000000" transform="translate(0,0)"/>
<path d="" fill="#000000" transform="translate(0,0)"/>
<path d="" fill="#000000" transform="translate(0,0)"/>
<path d="" fill="#000000" transform="translate(0,0)"/>
<path d="" fill="#000000" transform="translate(0,0)"/>
<path d="" fill="#000000" transform="translate(0,0)"/>
</svg>
